<?xml version="1.0" encoding="UTF-8"?>
<svg version="1.1" xmlns="http://www.w3.org/2000/svg" width="256" height="256">
<path d="M0 0 C0.65752258 0.00054382 1.31504517 0.00108765 1.99249268 0.00164795 C33.48213916 0.12094499 62.52932661 12.37379771 85.125 34.375 C107.24865296 56.68706084 118.91878234 86.65023239 118.875 117.875 C118.87445618 118.53252258 118.87391235 119.19004517 118.87335205 119.86749268 C118.75405501 151.35713916 106.50120229 180.40432661 84.5 203 C62.18793916 225.12365296 32.22476761 236.79378234 1 236.75 C0.34247742 236.74945618 -0.31504517 236.74891235 -0.99249268 236.74835205 C-32.48213916 236.62905501 -61.52932661 224.37620229 -84.125 202.375 C-106.24865296 180.06293916 -117.91878234 150.09976761 -117.875 118.875 C-117.87445618 118.21747742 -117.87391235 117.55995483 -117.87335205 116.88250732 C-117.75405501 85.39286084 -105.50120229 56.34567339 -83.5 33.75 C-61.18793916 11.62634704 -31.22476761 -0.04378234 0 0 Z " fill="#1C1B1B" transform="translate(127.5,9.625)"/>
<path d="M0 0 C1.55175445 0.82771349 3.0931654 1.67504037 4.625 2.5390625 C5.44371582 2.98588379 6.26243164 3.43270508 7.10595703 3.89306641 C34.66713381 19.11961798 34.66713381 19.11961798 37.625 26.1640625 C39.20832756 34.18410514 38.8083507 42.65642708 38.8125 50.7890625 C38.82474609 52.06007812 38.83699219 53.33109375 38.84960938 54.640625 C38.87347964 69.91759457 38.87347964 69.91759457 35.1640625 75.2734375 C27.50014169 81.84251248 18.74662438 86.77316281 10.01904297 91.77929688 C7.91114481 92.99855022 5.82998644 94.25112617 3.75390625 95.5234375 C2.65949219 96.16796875 1.56507813 96.8125 0.4375 97.4765625 C-0.48417969 98.02957031 -1.40585938 98.58257812 -2.35546875 99.15234375 C-8.37403697 101.16891447 -13.56706752 99.78034526 -19.13671875 97.01171875 C-20.7889952 96.10188 -22.43073239 95.17269065 -24.0625 94.2265625 C-24.92883057 93.73510742 -25.79516113 93.24365234 -26.68774414 92.73730469 C-49.00971357 79.86631057 -49.00971357 79.86631057 -53.375 71.1640625 C-54.45946316 66.45227166 -54.55027345 61.76294981 -54.578125 56.94921875 C-54.58382507 56.17525253 -54.58952515 55.40128632 -54.59539795 54.60386658 C-54.60480116 52.9742874 -54.6113632 51.3446896 -54.61523438 49.71508789 C-54.62495726 47.23745362 -54.65603107 44.76064384 -54.6875 42.28320312 C-54.69402985 40.69271321 -54.69928039 39.10221742 -54.703125 37.51171875 C-54.7154718 36.77921402 -54.7278186 36.04670929 -54.74053955 35.29200745 C-54.71599056 29.55903545 -53.66123469 24.87317182 -49.85180664 20.35913086 C-45.36697528 16.80043431 -40.72326014 13.66951318 -35.8125 10.7265625 C-35.02891113 10.25500732 -34.24532227 9.78345215 -33.43798828 9.29760742 C-28.60035304 6.41773495 -23.73453809 3.59515819 -18.75 0.9765625 C-17.70585938 0.42613281 -16.66171875 -0.12429687 -15.5859375 -0.69140625 C-9.78344762 -2.75969035 -5.47172246 -2.58879136 0 0 Z " fill="#E1281E" transform="translate(136.375,78.8359375)"/>
<path d="M0 0 C11.11052805 6.5643464 20.13696616 18.68162672 26 30 C26 30.99 26 31.98 26 33 C24.97261719 33.18175781 23.94523437 33.36351562 22.88671875 33.55078125 C21.48678057 33.80359023 20.08705529 34.05757988 18.6875 34.3125 C17.95708496 34.44495117 17.22666992 34.57740234 16.47412109 34.71386719 C11.45872108 35.65142822 6.64957667 36.87709552 1.8203125 38.546875 C-6.43659063 39.87346885 -15.10603667 37.25860045 -23.125 35.4375 C-24.7028125 35.08655273 -24.7028125 35.08655273 -26.3125 34.72851562 C-28.87620435 34.15750875 -31.43860496 33.58126181 -34 33 C-33.21980983 28.19257656 -31.23947719 25.04445212 -28.375 21.1875 C-27.92205566 20.56875 -27.46911133 19.95 -27.00244141 19.3125 C-10.47323095 -3.0467581 -10.47323095 -3.0467581 0 0 Z " fill="#F4584B" transform="translate(132,31)"/>
<path d="M0 0 C4.04068593 1.56718192 6.46363355 4.44396408 9.25 7.625 C10.14891718 8.6399065 11.05001356 9.65288644 11.953125 10.6640625 C12.4267749 11.20208496 12.9004248 11.74010742 13.38842773 12.29443359 C15.01090886 14.06506668 15.01090886 14.06506668 17.00415039 15.75634766 C23.05195558 21.15939899 24.99745939 26.35530419 26.9375 34.125 C27.22689453 35.18332031 27.51628906 36.24164063 27.81445312 37.33203125 C29.12529105 42.20260387 30.2186209 47.01440676 31 52 C21.91924426 52.41380659 13.34340992 52.22575859 4.4375 50.25 C3.71320801 50.09305664 2.98891602 49.93611328 2.24267578 49.77441406 C-2.87043034 48.54821002 -9.18317825 46.81682175 -13 43 C-14.60982139 27.69350151 -7.9060918 15.10102999 -1 2 C-0.67 1.34 -0.34 0.68 0 0 Z " fill="#D41C16" transform="translate(56,134)"/>
<path d="M0 0 C1.18239258 0.00676758 1.18239258 0.00676758 2.38867188 0.01367188 C4.32164761 0.02538688 6.25458393 0.04332002 8.1875 0.0625 C6.63783043 7.9517269 4.25631033 15.51293358 1.77075195 23.1472168 C1.20627845 25.00083532 0.76281872 26.88997467 0.32421875 28.77734375 C-0.9952267 32.59058645 -2.3932196 33.98317484 -5.5 36.5 C-9.49710897 39.87995073 -12.96727007 43.33756455 -16.33984375 47.33203125 C-18.06018223 49.35354304 -19.89813402 51.22470866 -21.8125 53.0625 C-26.02358067 47.65877062 -28.61341545 42.31453938 -31.0625 35.9375 C-31.413125 35.05707031 -31.76375 34.17664063 -32.125 33.26953125 C-34.45688939 27.32321331 -35.95519168 21.92421857 -36.1875 15.5 C-36.23648438 14.57058594 -36.28546875 13.64117187 -36.3359375 12.68359375 C-35.8125 10.0625 -35.8125 10.0625 -33.8203125 7.890625 C-30.09740178 5.62786888 -26.4971251 4.49885009 -22.3125 3.375 C-21.19294922 3.05692383 -21.19294922 3.05692383 -20.05078125 2.73242188 C-17.97706363 2.15067985 -15.89829532 1.59909353 -13.8125 1.0625 C-12.99394531 0.85109375 -12.17539063 0.6396875 -11.33203125 0.421875 C-7.55436127 -0.11695545 -3.80988036 -0.04151588 0 0 Z " fill="#E8443A" transform="translate(78.8125,67.9375)"/>
<path d="M0 0 C14.55550806 -0.86754684 31.56418359 0.74016144 44 9 C45 10 45 10 45.0546875 12.4140625 C44.30735776 25.76852006 40.01734377 43.4091475 30 53 C29.61779297 52.5875 29.23558594 52.175 28.84179688 51.75 C27.70466664 50.52392456 26.56638495 49.2989165 25.42724609 48.07470703 C24.13475781 46.68332554 22.84605586 45.28841788 21.56103516 43.89013672 C18.31520526 40.37964305 15.06705522 37.17129651 11.375 34.125 C6.6671508 29.5573846 6.07282546 23.35161636 4.875 17.15625 C4.02488474 12.81121643 2.55995818 8.91313844 0.734375 4.8828125 C0 3 0 3 0 0 Z " fill="#E32B20" transform="translate(170,68)"/>
<path d="M0 0 C3.4197962 1.02288547 4.1314679 2.22031143 6 5.3515625 C6.68434023 6.76763587 7.35001794 8.19283079 8 9.625 C8.34740234 10.3782959 8.69480469 11.1315918 9.05273438 11.90771484 C13.08799258 20.98704581 17.23776303 31.97888008 16 42 C12.41773949 46.09703417 7.83316414 47.29727581 2.75 48.6875 C1.9878418 48.90172607 1.22568359 49.11595215 0.44042969 49.33666992 C-9.1424794 51.9556843 -18.07732594 52.13802792 -28 52 C-27.41798214 46.20597948 -26.27662858 40.93217487 -24.5625 35.375 C-24.34529297 34.65054688 -24.12808594 33.92609375 -23.90429688 33.1796875 C-23.47761417 31.7650998 -23.04305207 30.35285983 -22.59985352 28.94335938 C-22.06835265 27.22144367 -21.5924448 25.48258465 -21.125 23.7421875 C-19.76595019 20.42950359 -18.19383036 19.01027717 -15.4375 16.75 C-6.60853382 9.31226842 -6.60853382 9.31226842 0 0 Z " fill="#D41C16" transform="translate(199,134)"/>
<path d="M0 0 C5.19030934 1.72169435 10.56371215 2.60355781 15.93041992 3.61914062 C18.03848694 4.03985979 20.12913922 4.5460335 22.21484375 5.06640625 C22.70984375 6.05640625 22.70984375 6.05640625 23.21484375 7.06640625 C20.37478052 14.26744088 15.11146954 20.19647574 10.21484375 26.06640625 C9.5496875 26.93458984 9.5496875 26.93458984 8.87109375 27.8203125 C4.9335911 32.91512167 0.15656544 36.84068888 -5.78515625 39.31640625 C-14.17275575 38.61743962 -21.48853492 28.92374482 -26.78515625 23.06640625 C-31.07536004 17.67553219 -34.18728213 12.41762687 -36.78515625 6.06640625 C-35.86476563 5.8240625 -34.944375 5.58171875 -33.99609375 5.33203125 C-32.09730469 4.82929688 -32.09730469 4.82929688 -30.16015625 4.31640625 C-29.4837207 4.14101318 -28.80728516 3.96562012 -28.11035156 3.78491211 C-24.70932279 2.89271575 -21.39238672 1.93342453 -18.05859375 0.8046875 C-11.24644443 -1.46854636 -6.80893733 -2.44712184 0 0 Z " fill="#CF130F" transform="translate(134.78515625,186.93359375)"/>
<path d="M0 0 C0.65752258 0.00054382 1.31504517 0.00108765 1.99249268 0.00164795 C33.48213916 0.12094499 62.52932661 12.37379771 85.125 34.375 C98.6103846 47.97522788 109.6152108 65.75174116 114.5 84.375 C114.0625 86.61328125 114.0625 86.61328125 113.5 88.375 C113.1596875 87.405625 112.819375 86.43625 112.46875 85.4375 C107.08270213 70.40578819 100.82063094 56.71928406 90.5 44.375 C89.69046875 43.39015625 88.8809375 42.4053125 88.046875 41.390625 C75.93809531 27.39664608 60.99239288 18.42665969 44.5 10.375 C44.5 11.035 44.5 11.695 44.5 12.375 C45.345625 12.62636719 46.19125 12.87773437 47.0625 13.13671875 C50.7773092 14.47489434 54.09770071 16.21520641 57.5 18.1875 C58.09039062 18.51814453 58.68078125 18.84878906 59.2890625 19.18945312 C63.40762165 21.55263519 66.92370204 24.25119096 70.5 27.375 C66.49603069 27.375 64.30912132 25.43047797 61.125 23.25 C50.63464856 16.32164046 39.74816882 11.89428283 27.73828125 8.35546875 C24.5 7.375 24.5 7.375 22.5 6.375 C20.83380554 6.3353287 19.16608987 6.33115553 17.5 6.375 C17.5 5.385 17.5 4.395 17.5 3.375 C9.807359 2.52699233 2.23708326 2.25347513 -5.5 2.375 C-5.83 3.365 -6.16 4.355 -6.5 5.375 C-7.15226562 5.35179687 -7.80453125 5.32859375 -8.4765625 5.3046875 C-9.35054688 5.28664063 -10.22453125 5.26859375 -11.125 5.25 C-11.98351562 5.22679687 -12.84203125 5.20359375 -13.7265625 5.1796875 C-16.93654054 5.40574229 -19.47512619 6.28865573 -22.5 7.375 C-24.70626817 7.98666515 -26.91472603 8.59047197 -29.125 9.1875 C-42.94480991 13.11523545 -55.75193233 19.11730026 -67.5 27.375 C-68.16 26.715 -68.82 26.055 -69.5 25.375 C-82.61717629 35.78115416 -92.58378493 47.19591873 -101.5 61.375 C-102.16 61.045 -102.82 60.715 -103.5 60.375 C-97.75856477 51.38527887 -91.94968492 43.06499734 -84.5 35.375 C-83.86320312 34.653125 -83.22640625 33.93125 -82.5703125 33.1875 C-61.96481029 10.73792561 -29.78395998 -0.04176209 0 0 Z M28.5 5.375 C28.5 6.035 28.5 6.695 28.5 7.375 C31.14 8.035 33.78 8.695 36.5 9.375 C36.17 8.385 35.84 7.395 35.5 6.375 C33.19 6.045 30.88 5.715 28.5 5.375 Z " fill="#2B2B2B" transform="translate(127.5,9.625)"/>
<path d="M0 0 C1.55175445 0.82771349 3.0931654 1.67504037 4.625 2.5390625 C5.44371582 2.98588379 6.26243164 3.43270508 7.10595703 3.89306641 C34.73689142 19.15815653 34.73689142 19.15815653 36.4375 24.9140625 C36.499375 25.6565625 36.56125 26.3990625 36.625 27.1640625 C36.026875 26.4834375 35.42875 25.8028125 34.8125 25.1015625 C31.5159586 21.82343754 27.73340304 19.47994216 23.76171875 17.09375 C21.53086845 15.72134646 19.4880075 14.34708758 17.39453125 12.796875 C12.65390942 9.44913053 8.70766282 7.10822149 2.69140625 7.26953125 C-1.82312973 8.08878389 -6.07305778 9.6011041 -10.375 11.1640625 C-12.04553917 11.72796456 -13.71611314 12.29176354 -15.38671875 12.85546875 C-27.75085822 17.18912341 -39.21803248 22.94672336 -50.66699219 29.28125 C-52.375 30.1640625 -52.375 30.1640625 -53.375 30.1640625 C-53.375 26.71224866 -53.24712353 24.33904565 -51.16015625 21.52734375 C-42.01445581 12.96232271 -29.78395513 6.77971893 -18.75 0.9765625 C-17.70585938 0.42613281 -16.66171875 -0.12429687 -15.5859375 -0.69140625 C-9.78344762 -2.75969035 -5.47172246 -2.58879136 0 0 Z " fill="#ED493D" transform="translate(136.375,78.8359375)"/>
<path d="M0 0 C5.33739473 1.98844117 8.45333824 4.90667648 11 10 C11.40331428 15.24308569 10.86051133 18.56127553 8 23 C4.32297423 26.40124883 1.71377437 27.83832317 -3.3125 28.3125 C-8.49723861 27.87311537 -11.41601755 25.80246279 -14.8125 21.9375 C-17.23959201 17.97750777 -17.38595477 14.55426632 -17 10 C-13.30090764 2.74408806 -8.25966171 -1.03245771 0 0 Z " fill="#110F0F" transform="translate(131,114)"/>
<path d="M0 0 C14.55550806 -0.86754684 31.56418359 0.74016144 44 9 C45 10 45 10 45.0625 13.0625 C45.041875 14.031875 45.02125 15.00125 45 16 C44.13503906 15.86722656 43.27007812 15.73445313 42.37890625 15.59765625 C29.62293185 13.80894745 16.86561415 13.37858147 4 13 C3.32694982 11.39850114 2.66177773 9.79368971 2 8.1875 C1.62875 7.29417969 1.2575 6.40085937 0.875 5.48046875 C0 3 0 3 0 0 Z " fill="#E84136" transform="translate(170,68)"/>
<path d="M0 0 C7.98186018 0.05339037 15.41602504 1.62627555 23 4 C21.36162176 7.27675648 17.81933597 8.17266026 14.625 9.6875 C7.76383538 13.02030669 1.32517797 16.72154324 -5 21 C-5.99 21.66 -6.98 22.32 -8 23 C-4.5625 4.5625 -4.5625 4.5625 0 0 Z " fill="#E84E43" transform="translate(94,69)"/>
<path d="M0 0 C7.70806599 16.26931485 7.70806599 16.26931485 6 22 C5.41476563 21.61070313 4.82953125 21.22140625 4.2265625 20.8203125 C-4.58872726 15.07581437 -13.76954904 10.03992077 -23 5 C-23 4.67 -23 4.34 -23 4 C-20.48159185 3.322781 -17.96091276 2.65808826 -15.4375 2 C-14.73302734 1.80921875 -14.02855469 1.6184375 -13.30273438 1.421875 C-8.72939791 0.24165914 -4.72223635 -0.19856973 0 0 Z " fill="#EB4D41" transform="translate(162,69)"/>
<path d="M0 0 C0.66 0 1.32 0 2 0 C0.62820313 7.48252838 -1.92163279 14.05604954 -5 21 C-13.08299944 20.63259093 -20.36454007 19.74049239 -28 17 C-25.45500795 14.45500795 -22.81221966 13.3679518 -19.5625 11.8125 C-9.09366923 6.91526545 -9.09366923 6.91526545 0 0 Z " fill="#D0201A" transform="translate(167,164)"/>
<path d="M0 0 C7.96923077 6.83076923 7.96923077 6.83076923 11.375 10.6875 C12.37660156 11.80705078 12.37660156 11.80705078 13.3984375 12.94921875 C15 15 15 15 16 18 C15.05957031 19.59399414 15.05957031 19.59399414 13.578125 21.28515625 C13.04703125 21.89810547 12.5159375 22.51105469 11.96875 23.14257812 C11.11796875 24.09293945 11.11796875 24.09293945 10.25 25.0625 C9.69828125 25.69994141 9.1465625 26.33738281 8.578125 26.99414062 C6.13771362 29.77773486 4.10865586 31.92756276 1 34 C0.67 22.78 0.34 11.56 0 0 Z " fill="#DB281F" transform="translate(180,110)"/>
<path d="M0 0 C1.0209375 0.60134766 1.0209375 0.60134766 2.0625 1.21484375 C6.78325616 3.98326591 11.50815706 6.73524856 16.2890625 9.3984375 C17.36800781 9.99990601 17.36800781 9.99990601 18.46875 10.61352539 C19.89160652 11.40469935 21.31605815 12.1930123 22.7421875 12.97827148 C25.44350036 14.48081029 27.80251319 15.80251319 30 18 C26.34890564 19.59735378 22.9312635 20.49318979 19 21.125 C17.989375 21.29257813 16.97875 21.46015625 15.9375 21.6328125 C13.25084229 21.96864471 10.70316597 22.06956677 8 22 C4.4827877 14.81265312 1.85265903 7.78719283 0 0 Z " fill="#D2201A" transform="translate(86,163)"/>
<path d="M0 0 C0 11.55 0 23.1 0 35 C-3.13371802 31.86628198 -6.2100838 28.77112651 -9.1875 25.5 C-9.86167969 24.7678125 -10.53585938 24.035625 -11.23046875 23.28125 C-13.05434368 20.92994105 -14.03806462 18.80194509 -15 16 C-13.2308289 13.89441606 -11.4597399 11.79049842 -9.6875 9.6875 C-9.18798828 9.09259766 -8.68847656 8.49769531 -8.17382812 7.88476562 C-7.44389648 7.01948242 -7.44389648 7.01948242 -6.69921875 6.13671875 C-6.25408936 5.60780029 -5.80895996 5.07888184 -5.3503418 4.53393555 C-1.35906414 0 -1.35906414 0 0 0 Z " fill="#DE251C" transform="translate(76,110)"/>
<path d="M0 0 C1.55175445 0.82771349 3.0931654 1.67504037 4.625 2.5390625 C5.44371582 2.98588379 6.26243164 3.43270508 7.10595703 3.89306641 C34.73689142 19.15815653 34.73689142 19.15815653 36.4375 24.9140625 C36.499375 25.6565625 36.56125 26.3990625 36.625 27.1640625 C36.026875 26.4834375 35.42875 25.8028125 34.8125 25.1015625 C30.65696986 20.98056585 25.60509098 18.1752803 20.625 15.1640625 C19.96822266 14.75929688 19.31144531 14.35453125 18.63476562 13.9375 C4.67357877 4.2916993 4.67357877 4.2916993 -11.17578125 1.84375 C-15.54281183 3.08050371 -19.48099176 4.95599272 -23.5 7.0390625 C-24.51513672 7.54759766 -24.51513672 7.54759766 -25.55078125 8.06640625 C-28.73691437 9.68720511 -31.74991303 11.37049065 -34.6796875 13.421875 C-37.375 15.1640625 -37.375 15.1640625 -40.375 15.1640625 C-40.375 15.8240625 -40.375 16.4840625 -40.375 17.1640625 C-41.344375 17.4321875 -42.31375 17.7003125 -43.3125 17.9765625 C-44.323125 18.3684375 -45.33375 18.7603125 -46.375 19.1640625 C-46.705 20.1540625 -47.035 21.1440625 -47.375 22.1640625 C-49.4375 23.3515625 -49.4375 23.3515625 -51.375 24.1640625 C-47.51734228 14.56231003 -32.9190594 8.84182833 -24.20654297 4.15527344 C-22.59714556 3.28428524 -21.0023584 2.38641311 -19.41015625 1.484375 C-18.57355469 1.02804688 -17.73695312 0.57171875 -16.875 0.1015625 C-16.1840625 -0.28128906 -15.493125 -0.66414063 -14.78125 -1.05859375 C-9.37568568 -2.80487183 -5.03120624 -2.3960508 0 0 Z " fill="#E15E54" transform="translate(136.375,78.8359375)"/>
<path d="M0 0 C24.06255915 6.50339436 44.39451018 28.15618496 56.74560547 48.80419922 C68.94590831 70.16066551 68.94590831 70.16066551 67.5625 77.23828125 C67.376875 77.81964844 67.19125 78.40101562 67 79 C66.6596875 78.030625 66.319375 77.06125 65.96875 76.0625 C60.58270213 61.03078819 54.32063094 47.34428406 44 35 C43.19046875 34.01515625 42.3809375 33.0303125 41.546875 32.015625 C29.97022343 18.63662049 15.76953495 9.72863346 0 2 C0 1.34 0 0.68 0 0 Z " fill="#282828" transform="translate(174,19)"/>
<path d="M0 0 C9.81239676 5.79738164 16.8912889 15.59230534 23 25 C22.67 25.66 22.34 26.32 22 27 C21.3709375 26.154375 20.741875 25.30875 20.09375 24.4375 C10.4389611 11.03116518 10.4389611 11.03116518 -3 2 C-6.24720222 2.55413092 -6.24720222 2.55413092 -9 4 C-9.99 4.33 -10.98 4.66 -12 5 C-12.6713739 6.33096931 -13.33707076 7.66480449 -14 9 C-15.53844254 10.626986 -17.12782977 12.20648044 -18.75 13.75 C-22.98759176 17.88932876 -26.64807383 22.12199362 -30 27 C-30.33 26.34 -30.66 25.68 -31 25 C-11.03506098 -3.21019956 -11.03506098 -3.21019956 0 0 Z " fill="#E2665B" transform="translate(132,31)"/>
<path d="M0 0 C6.32908056 1.85948728 12.73704497 3.13738891 19.21289062 4.3659668 C21.32197134 4.7857828 23.41350218 5.29192933 25.5 5.8125 C25.995 6.8025 25.995 6.8025 26.5 7.8125 C19.58432246 8.19670431 13.65672654 6.42515317 7.05859375 4.50195312 C-2.66878882 1.85783305 -10.74675945 3.94355841 -20.28125 6.43945312 C-24.82560346 7.57554149 -28.81414947 8.00313171 -33.5 7.8125 C-31.06279263 5.37529263 -29.49094815 5.14030072 -26.16015625 4.33984375 C-24.5659082 3.95022461 -24.5659082 3.95022461 -22.93945312 3.55273438 C-21.26786133 3.15538086 -21.26786133 3.15538086 -19.5625 2.75 C-17.36567307 2.21832453 -15.1690489 1.68581041 -12.97265625 1.15234375 C-11.99562744 0.91894287 -11.01859863 0.68554199 -10.01196289 0.44506836 C-3.68421043 -1.14840104 -3.68421043 -1.14840104 0 0 Z " fill="#CC302B" transform="translate(131.5,186.1875)"/>
<path d="M0 0 C0 0.99 0 1.98 0 3 C-1.08796875 3.04898438 -2.1759375 3.09796875 -3.296875 3.1484375 C-17.76702185 3.85574938 -30.814724 5.407362 -44 12 C-42.51208154 8.07730587 -40.69425297 6.88806671 -37 5 C-33.95817527 3.92813299 -30.87617487 3.1006038 -27.75 2.3125 C-26.87698242 2.09118408 -26.00396484 1.86986816 -25.10449219 1.6418457 C-16.6695991 -0.34018627 -8.61087994 -0.50192953 0 0 Z " fill="#D45A52" transform="translate(87,68)"/>
<path d="M0 0 C14.72399119 -0.87758888 31.34064534 0.87136174 44 9 C44 9.66 44 10.32 44 11 C38 9 38 9 35.9140625 8.26953125 C35.17929688 8.01558594 34.44453125 7.76164062 33.6875 7.5 C33.01074219 7.2628125 32.33398438 7.025625 31.63671875 6.78125 C24.2299674 4.58665701 17.15086702 3.64663728 9.4375 3.375 C8.06754883 3.31699219 8.06754883 3.31699219 6.66992188 3.2578125 C4.44680076 3.16469748 2.22366387 3.07887834 0 3 C0 2.01 0 1.02 0 0 Z " fill="#D8554C" transform="translate(170,68)"/>
<path d="M0 0 C19.18842076 10.13237692 19.18842076 10.13237692 27 17 C27.8125 19.75 27.8125 19.75 28 22 C27.401875 21.319375 26.80375 20.63875 26.1875 19.9375 C18.43381029 12.227127 7.48215884 7.32938855 -2 2 C-1.34 1.34 -0.68 0.68 0 0 Z " fill="#E0463C" transform="translate(145,84)"/>
<path d="M0 0 C8.02616194 0.40621064 15.32721195 1.59847776 23 4 C22.67 4.66 22.34 5.32 22 6 C20.948125 5.855625 19.89625 5.71125 18.8125 5.5625 C14.94395045 5.08413097 11.07111117 4.70949447 7.1875 4.375 C5.53814453 4.23191406 5.53814453 4.23191406 3.85546875 4.0859375 C0.92488592 3.83358076 0.92488592 3.83358076 -2 5 C-1.34 3.35 -0.68 1.7 0 0 Z " fill="#D65D54" transform="translate(94,69)"/>
<path d="M0 0 C2.31794536 3.86324227 2.28897463 6.02282239 3 11 C-3.93 7.04 -3.93 7.04 -11 3 C-11 2.67 -11 2.34 -11 2 C-7.37 2 -3.74 2 0 2 C0 1.34 0 0.68 0 0 Z " fill="#DB3529" transform="translate(166,80)"/>
<path d="M0 0 C0.99 0.33 1.98 0.66 3 1 C-8.89830508 15.03389831 -8.89830508 15.03389831 -15 21 C-13.50427975 16.48748807 -10.97750739 13.05977125 -8.0625 9.375 C-7.39831055 8.51648438 -7.39831055 8.51648438 -6.72070312 7.640625 C-4.61489212 4.94167199 -2.50896606 2.33507732 0 0 Z " fill="#E0665B" transform="translate(116,37)"/>
<path d="M0 0 C0.66 0.33 1.32 0.66 2 1 C-4.93 7.93 -11.86 14.86 -19 22 C-19 17.83256273 -16.7220201 16.1175327 -14 13.25 C-13.50395264 12.71793945 -13.00790527 12.18587891 -12.49682617 11.63769531 C-8.56892151 7.476431 -4.4406485 3.61359362 0 0 Z " fill="#3E3E3E" transform="translate(57,37)"/>
<path d="M0 0 C0.74443359 0.54140625 0.74443359 0.54140625 1.50390625 1.09375 C6.13647891 4.25831577 9.21890628 5.85645833 15 5 C18.29978359 3.60393771 21.020603 1.98626466 24 0 C22.60415208 3.37329915 21.07634389 5.04232662 18 7 C13.88675583 8.37108139 10.16991074 8.8276537 6.0234375 7.24609375 C1.23897768 4.73572903 1.23897768 4.73572903 0.3046875 1.859375 C0.20414062 1.24578125 0.10359375 0.6321875 0 0 Z " fill="#D33D35" transform="translate(116,136)"/>
<path d="M0 0 C1.17829199 3.53487596 0.75665474 5.14485405 0.00390625 8.76171875 C-0.22490234 9.87998047 -0.45371094 10.99824219 -0.68945312 12.15039062 C-0.93630859 13.31763672 -1.18316406 14.48488281 -1.4375 15.6875 C-1.68048828 16.86634766 -1.92347656 18.04519531 -2.17382812 19.25976562 C-2.77569172 22.17467364 -3.38468019 25.08790804 -4 28 C-4.33 28 -4.66 28 -5 28 C-5.56463293 19.11225936 -5.04309724 7.56464586 0 0 Z " fill="#141414" transform="translate(17,93)"/>
<path d="M0 0 C0 0.66 0 1.32 0 2 C-3.96 3.98 -3.96 3.98 -8 6 C-7.113125 5.690625 -6.22625 5.38125 -5.3125 5.0625 C-2.53290845 4.1709329 0.13136375 3.50622993 3 3 C0.10181338 5.29158942 -2.83140544 7.07862366 -6.125 8.75 C-6.99382812 9.19859375 -7.86265625 9.6471875 -8.7578125 10.109375 C-9.49773437 10.40328125 -10.23765625 10.6971875 -11 11 C-11.66 10.67 -12.32 10.34 -13 10 C-11.44443316 5.72219118 -9.94043623 3.64463026 -5.9375 1.625 C-2.3902439 0 -2.3902439 0 0 0 Z " fill="#353535" transform="translate(82,19)"/>
<path d="M0 0 C1.85772162 0.08984301 3.71247985 0.24611861 5.5625 0.4375 C7.08037109 0.59025391 7.08037109 0.59025391 8.62890625 0.74609375 C9.80259766 0.87177734 9.80259766 0.87177734 11 1 C10.67 1.66 10.34 2.32 10 3 C9.34773438 2.97679687 8.69546875 2.95359375 8.0234375 2.9296875 C2.85439841 2.82295218 -1.13228766 3.095243 -6 5 C-13.67774184 7.35430756 -13.67774184 7.35430756 -18 6 C-16.78441406 5.65066406 -15.56882812 5.30132812 -14.31640625 4.94140625 C-12.73172137 4.4819414 -11.14708863 4.0222967 -9.5625 3.5625 C-8.76005859 3.33240234 -7.95761719 3.10230469 -7.13085938 2.86523438 C-3.25946753 2.01294138 -3.25946753 2.01294138 0 0 Z " fill="#3C3C3C" transform="translate(111,12)"/>
<path d="M0 0 C0.2265625 2.3203125 0.2265625 2.3203125 0 5 C-1.5390625 6.5546875 -1.5390625 6.5546875 -3.625 7.875 C-7.83259522 10.74994051 -10.87604045 14.00038513 -14 18 C-14 13.90544392 -12.35948542 12.66442057 -9.75 9.5625 C-8.96109375 8.61503906 -8.1721875 7.66757813 -7.359375 6.69140625 C-1.4934688 0 -1.4934688 0 0 0 Z " fill="#D44740" transform="translate(76,110)"/>
<path d="M0 0 C3.21017657 1.11658315 4.71011309 2.41878868 6.875 5 C3.875 5 3.875 5 1.25 3.6875 C-3.38323377 2.74369312 -5.46560888 4.42803255 -9.3671875 6.8359375 C-9.94726562 7.22007813 -10.52734375 7.60421875 -11.125 8 C-8.89475577 3.00299052 -5.70336081 0 0 0 Z " fill="#EF7064" transform="translate(129.125,30)"/>
<path d="M0 0 C0.33 0.99 0.66 1.98 1 3 C-3.625 7.875 -3.625 7.875 -7 9 C-7.99 8.34 -8.98 7.68 -10 7 C-6.7 4.69 -3.4 2.38 0 0 Z " fill="#2D2D2D" transform="translate(70,24)"/>
<path d="M0 0 C0 0.99 0 1.98 0 3 C-1.32 3.33 -2.64 3.66 -4 4 C-4 4.66 -4 5.32 -4 6 C-4.969375 6.268125 -5.93875 6.53625 -6.9375 6.8125 C-7.948125 7.204375 -8.95875 7.59625 -10 8 C-10.33 8.99 -10.66 9.98 -11 11 C-13.0625 12.1875 -13.0625 12.1875 -15 13 C-13.47554249 8.96200244 -10.97651424 7.25063433 -7.5 4.8125 C-6.03046875 3.77029297 -6.03046875 3.77029297 -4.53125 2.70703125 C-2 1 -2 1 0 0 Z " fill="#D95850" transform="translate(100,90)"/>
<path d="M0 0 C0.66 0.33 1.32 0.66 2 1 C-2.455 3.97 -2.455 3.97 -7 7 C-7.66 6.34 -8.32 5.68 -9 5 C-9.99 5.495 -9.99 5.495 -11 6 C-10.3125 4.0625 -10.3125 4.0625 -9 2 C-6.20402714 1.13970066 -3.92828926 1 -1 1 C-0.67 0.67 -0.34 0.34 0 0 Z " fill="#313131" transform="translate(67,30)"/>
<path d="M0 0 C1.43931117 0.45261358 2.87638999 0.91232979 4.3125 1.375 C5.11300781 1.63023438 5.91351563 1.88546875 6.73828125 2.1484375 C9 3 9 3 12 5 C12 5.66 12 6.32 12 7 C7.76570244 5.68938409 3.92592596 4.05643741 0 2 C0 1.34 0 0.68 0 0 Z " fill="#D65047" transform="translate(202,72)"/>
<path d="M0 0 C0 0.33 0 0.66 0 1 C-1.7015625 1.4640625 -1.7015625 1.4640625 -3.4375 1.9375 C-6.78775099 2.62924531 -6.78775099 2.62924531 -8 4 C-9.66617115 4.04063832 -11.33388095 4.042721 -13 4 C-13.33 3.34 -13.66 2.68 -14 2 C-9.126739 0.4087311 -5.19209404 -0.21192221 0 0 Z " fill="#BB534B" transform="translate(162,69)"/>
<path d="M0 0 C0 0.66 0 1.32 0 2 C-4.455 2.495 -4.455 2.495 -9 3 C-9.33 2.34 -9.66 1.68 -10 1 C-6.59437148 0.22157062 -3.49234244 -0.09978121 0 0 Z " fill="#E45F55" transform="translate(149,72)"/>
<path d="M0 0 C-1 3 -1 3 -4.0625 4.6875 C-5.031875 5.120625 -6.00125 5.55375 -7 6 C-7 5.01 -7 4.02 -7 3 C-2.77777778 0 -2.77777778 0 0 0 Z " fill="#1B1B1B" transform="translate(70,27)"/>
</svg>
