<?xml version="1.0" encoding="UTF-8"?>
<svg version="1.1" xmlns="http://www.w3.org/2000/svg" width="700" height="700">
<path d="M0 0 C11.88 0 23.76 0 36 0 C36 2.31 36 4.62 36 7 C40.62 7 45.24 7 50 7 C50 9.31 50 11.62 50 14 C54.62 14 59.24 14 64 14 C64 18.62 64 23.24 64 28 C66.79947917 27.70703125 69.59895833 27.4140625 72.3984375 27.12109375 C75 27 75 27 77 28 C77 32.29 77 36.58 77 41 C79.31 41 81.62 41 84 41 C84 45.62 84 50.24 84 55 C88.62 55 93.24 55 98 55 C98 63.91 98 72.82 98 82 C102.29 82 106.58 82 111 82 C112 83 112 83 112.11352539 84.94946289 C112.10828857 85.7821167 112.10305176 86.61477051 112.09765625 87.47265625 C112.09443359 88.37177734 112.09121094 89.27089844 112.08789062 90.19726562 C112.07951172 91.14279297 112.07113281 92.08832031 112.0625 93.0625 C112.05798828 94.01189453 112.05347656 94.96128906 112.04882812 95.93945312 C112.03700128 98.29299531 112.01906521 100.64650532 112 103 C116.29 103 120.58 103 125 103 C125 111.91 125 120.82 125 130 C127.31 130 129.62 130 132 130 C132 136.93 132 143.86 132 151 C136.62 151 141.24 151 146 151 C146 174.1 146 197.2 146 221 C141.38 221 136.76 221 132 221 C132 229.91 132 238.82 132 248 C129.69 248 127.38 248 125 248 C125 284.3 125 320.6 125 358 C120.71 358 116.42 358 112 358 C112.00785522 360.71851196 112.00785522 360.71851196 112.01586914 363.49194336 C112.03196724 369.4670505 112.04347249 375.44215153 112.05181217 381.41727352 C112.05704002 385.0414596 112.06413587 388.6656223 112.07543945 392.28979492 C112.08627184 395.78459975 112.09227758 399.27938204 112.09487724 402.77420235 C112.09763551 404.76239389 112.10544688 406.75057631 112.11329651 408.73875427 C112.11340981 410.54050865 112.11340981 410.54050865 112.11352539 412.37866211 C112.115746 413.44233505 112.11796661 414.506008 112.12025452 415.60191345 C112 418 112 418 111 419 C108.81360547 419.07258946 106.62499611 419.08373783 104.4375 419.0625 C103.23996094 419.05347656 102.04242187 419.04445313 100.80859375 419.03515625 C99.88175781 419.02355469 98.95492188 419.01195312 98 419 C98.00785522 419.90093384 98.00785522 419.90093384 98.01586914 420.82006836 C98.03658014 423.52586838 98.04964125 426.23165177 98.0625 428.9375 C98.07087891 429.88302734 98.07925781 430.82855469 98.08789062 431.80273438 C98.09272461 433.15141602 98.09272461 433.15141602 98.09765625 434.52734375 C98.10551147 435.77632446 98.10551147 435.77632446 98.11352539 437.05053711 C98 439 98 439 97 440 C95.02 440 93.04 440 91 440 C91 448.91 91 457.82 91 467 C86.38 467 81.76 467 77 467 C77 471.62 77 476.24 77 481 C33.77 481 -9.46 481 -54 481 C-55.12695109 473.11134235 -55.12695109 473.11134235 -55.1328125 469.046875 C-55.13410156 468.180625 -55.13539063 467.314375 -55.13671875 466.421875 C-55.13285156 465.54015625 -55.12898438 464.6584375 -55.125 463.75 C-55.12886719 462.8528125 -55.13273437 461.955625 -55.13671875 461.03125 C-55.13478516 459.73960937 -55.13478516 459.73960937 -55.1328125 458.421875 C-55.13168457 457.64424805 -55.13055664 456.86662109 -55.12939453 456.06542969 C-55 454 -55 454 -54 451 C-49.71 451 -45.42 451 -41 451 C-41 449.02 -41 447.04 -41 445 C-39.02 444.67 -37.04 444.34 -35 444 C-34.67 435.75 -34.34 427.5 -34 419 C-36.31 419 -38.62 419 -41 419 C-41 414.71 -41 410.42 -41 406 C-44.1865625 406.0309375 -44.1865625 406.0309375 -47.4375 406.0625 C-49.62499611 406.08373783 -51.81360547 406.07258946 -54 406 C-55 405 -55 405 -55.0625 401.9375 C-55.041875 400.968125 -55.02125 399.99875 -55 399 C-56.98 399 -58.96 399 -61 399 C-61.70173653 394.61414671 -62.10834375 390.44209357 -62 386 C-65.63 385.67 -69.26 385.34 -73 385 C-73 396.22 -73 407.44 -73 419 C-75.31 419 -77.62 419 -80 419 C-80 427.91 -80 436.82 -80 446 C-84.29 446.33 -88.58 446.66 -93 447 C-92.98839844 448.35996094 -92.97679687 449.71992187 -92.96484375 451.12109375 C-92.95546738 452.8932278 -92.94636702 454.66536333 -92.9375 456.4375 C-92.92912109 457.33533203 -92.92074219 458.23316406 -92.91210938 459.15820312 C-92.90888672 460.01220703 -92.90566406 460.86621094 -92.90234375 461.74609375 C-92.89710693 462.53685303 -92.89187012 463.3276123 -92.88647461 464.14233398 C-93 466 -93 466 -94 467 C-96.18639453 467.07258946 -98.37500389 467.08373783 -100.5625 467.0625 C-102.35880859 467.04896484 -102.35880859 467.04896484 -104.19140625 467.03515625 C-105.11824219 467.02355469 -106.04507813 467.01195312 -107 467 C-106.98259766 468.39025391 -106.98259766 468.39025391 -106.96484375 469.80859375 C-106.95582031 471.00613281 -106.94679688 472.20367188 -106.9375 473.4375 C-106.92589844 474.63246094 -106.91429687 475.82742188 -106.90234375 477.05859375 C-107 480 -107 480 -108 481 C-109.4271362 481.09770201 -110.8590743 481.12631695 -112.28955078 481.12698364 C-113.21503723 481.12980347 -114.14052368 481.13262329 -115.09405518 481.13552856 C-116.62917755 481.13249222 -116.62917755 481.13249222 -118.1953125 481.12939453 C-119.266745 481.13114685 -120.33817749 481.13289917 -121.44207764 481.13470459 C-125.00306797 481.13912553 -128.56400911 481.13618426 -132.125 481.1328125 C-134.58740244 481.13348547 -137.04980482 481.13445544 -139.51220703 481.13571167 C-144.68067048 481.13718897 -149.84911668 481.13503305 -155.01757812 481.13037109 C-161.65940727 481.1246738 -168.30119602 481.12795263 -174.94302368 481.13394356 C-180.03003242 481.1375483 -185.1170315 481.13641099 -190.20404053 481.13381577 C-192.6537883 481.13314625 -195.10353693 481.13397575 -197.55328369 481.13629532 C-200.9704421 481.13882042 -204.38753407 481.13498326 -207.8046875 481.12939453 C-208.82810242 481.13141876 -209.85151733 481.13344299 -210.90594482 481.13552856 C-212.2941745 481.13129883 -212.2941745 481.13129883 -213.71044922 481.12698364 C-214.51940643 481.12660662 -215.32836365 481.12622959 -216.16183472 481.12584114 C-218 481 -218 481 -219 480 C-219.09993532 477.9394469 -219.13080906 475.8754741 -219.1328125 473.8125 C-219.13410156 472.55695313 -219.13539063 471.30140625 -219.13671875 470.0078125 C-219.13462402 469.35071289 -219.1325293 468.69361328 -219.13037109 468.01660156 C-219.12502234 466.00838665 -219.13031691 464.00039541 -219.13671875 461.9921875 C-219.13542969 460.73664063 -219.13414062 459.48109375 -219.1328125 458.1875 C-219.13168457 457.02605469 -219.13055664 455.86460937 -219.12939453 454.66796875 C-219 452 -219 452 -218 451 C-213.71 451 -209.42 451 -205 451 C-205 433.84 -205 416.68 -205 399 C-209.29 399 -213.58 399 -218 399 C-219 398 -219 398 -219.11352539 395.40795898 C-219.10567017 393.71908569 -219.10567017 393.71908569 -219.09765625 391.99609375 C-219.09282227 390.17368164 -219.09282227 390.17368164 -219.08789062 388.31445312 C-219.07532227 386.39536133 -219.07532227 386.39536133 -219.0625 384.4375 C-219.05798828 383.15423828 -219.05347656 381.87097656 -219.04882812 380.54882812 C-219.03699545 377.36583978 -219.02051068 374.18294238 -219 371 C-219.66 371.185625 -220.32 371.37125 -221 371.5625 C-224 372 -224 372 -232 371 C-232 364.4 -232 357.8 -232 351 C-234.31 351 -236.62 351 -239 351 C-239 344.07 -239 337.14 -239 330 C-241.31 330.33 -243.62 330.66 -246 331 C-248.31 330.67 -250.62 330.34 -253 330 C-253 321.09 -253 312.18 -253 303 C-257.29 303 -261.58 303 -266 303 C-266 296.4 -266 289.8 -266 283 C-269.1865625 283.0309375 -269.1865625 283.0309375 -272.4375 283.0625 C-274.62499611 283.08373783 -276.81360547 283.07258946 -279 283 C-280 282 -280 282 -280.0625 278.9375 C-280.041875 277.968125 -280.02125 276.99875 -280 276 C-281.39025391 276.01740234 -281.39025391 276.01740234 -282.80859375 276.03515625 C-284.00613281 276.04417969 -285.20367187 276.05320312 -286.4375 276.0625 C-287.63246094 276.07410156 -288.82742188 276.08570313 -290.05859375 276.09765625 C-293 276 -293 276 -294 275 C-294.07258946 272.81360547 -294.08373783 270.62499611 -294.0625 268.4375 C-294.05347656 267.23996094 -294.04445313 266.04242188 -294.03515625 264.80859375 C-294.02355469 263.88175781 -294.01195312 262.95492188 -294 262 C-296.31 262 -298.62 262 -301 262 C-301 259.69 -301 257.38 -301 255 C-305.29 255 -309.58 255 -314 255 C-314 248.4 -314 241.8 -314 235 C-317.1865625 235.0309375 -317.1865625 235.0309375 -320.4375 235.0625 C-322.62499611 235.08373783 -324.81360547 235.07258946 -327 235 C-328 234 -328 234 -328.12025452 231.48802185 C-328.11803391 230.37105423 -328.11581329 229.25408661 -328.11352539 228.10327148 C-328.11344986 226.84203964 -328.11337433 225.5808078 -328.11329651 224.28135681 C-328.1081891 222.89460206 -328.10297309 221.50784771 -328.09765625 220.12109375 C-328.09579201 218.71004791 -328.09436814 217.29900143 -328.09336853 215.88795471 C-328.08954379 212.16759465 -328.0797139 208.4472734 -328.06866455 204.72692871 C-328.05844948 200.93319219 -328.05387071 197.13944942 -328.04882812 193.34570312 C-328.03809158 185.89711564 -328.02049515 178.4485682 -328 171 C-323.38 171 -318.76 171 -314 171 C-314 139.32 -314 107.64 -314 75 C-306.74 75 -299.48 75 -292 75 C-292 77.31 -292 79.62 -292 82 C-287.38 82 -282.76 82 -278 82 C-278 84.31 -278 86.62 -278 89 C-273.71 89 -269.42 89 -265 89 C-264 94 -264 94 -264 103 C-233.31 103 -202.62 103 -171 103 C-171 98.71 -171 94.42 -171 90 C-170 89 -170 89 -167.05859375 88.90234375 C-165.86363281 88.91394531 -164.66867187 88.92554688 -163.4375 88.9375 C-161.64119141 88.95103516 -161.64119141 88.95103516 -159.80859375 88.96484375 C-158.41833984 88.98224609 -158.41833984 88.98224609 -157 89 C-157 86.69 -157 84.38 -157 82 C-154.69 82 -152.38 82 -150 82 C-150 79.69 -150 77.38 -150 75 C-140.43 75 -130.86 75 -121 75 C-121 102.06 -121 129.12 -121 157 C-114.73 157 -108.46 157 -102 157 C-102 155.02 -102 153.04 -102 151 C-93.09 151 -84.18 151 -75 151 C-75 146.38 -75 141.76 -75 137 C-49.59 137 -24.18 137 2 137 C2 141.62 2 146.24 2 151 C6.62 151 11.24 151 16 151 C16 152.98 16 154.96 16 157 C22.6 157 29.2 157 36 157 C36 161.62 36 166.24 36 171 C37.93746094 170.98839844 39.87492187 170.97679687 41.87109375 170.96484375 C44.39322821 170.95546779 46.9153637 170.94636738 49.4375 170.9375 C50.71689453 170.92912109 51.99628906 170.92074219 53.31445312 170.91210938 C54.52939453 170.90888672 55.74433594 170.90566406 56.99609375 170.90234375 C58.68496704 170.89448853 58.68496704 170.89448853 60.40795898 170.88647461 C63 171 63 171 64 172 C64.14393457 176.33530918 64.04212061 180.66157731 64 185 C68.29 185 72.58 185 77 185 C77 189.29 77 193.58 77 198 C83.27 198 89.54 198 96 198 C96 183.15 96 168.3 96 153 C91.71 153 87.42 153 83 153 C82 152 82 152 81.88647461 148.76538086 C81.88663369 147.33185874 81.89232593 145.89833088 81.90234375 144.46484375 C81.90446617 143.33496788 81.90446617 143.33496788 81.90663147 142.18226624 C81.91224624 139.7673044 81.92480117 137.35243399 81.9375 134.9375 C81.9425131 133.30403779 81.94707634 131.67057414 81.95117188 130.03710938 C81.96222046 126.02470415 81.97949494 122.01236759 82 118 C77.71 118 73.42 118 69 118 C68.36605303 113.95858806 67.87595548 110.0934693 68 106 C66.02 105.67 64.04 105.34 62 105 C62 98.07 62 91.14 62 84 C57.38 84 52.76 84 48 84 C48 79.71 48 75.42 48 71 C45.875625 71.020625 43.75125 71.04125 41.5625 71.0625 C39.37500389 71.08373783 37.18639453 71.07258946 35 71 C34 70 34 70 33.90234375 67.05859375 C33.93489583 63.70572917 33.96744792 60.35286458 34 57 C28.06 57 22.12 57 16 57 C16.0309375 60.1865625 16.0309375 60.1865625 16.0625 63.4375 C16.08373783 65.62499611 16.07258946 67.81360547 16 70 C15 71 15 71 12.05859375 71.09765625 C8.70572917 71.06510417 5.35286458 71.03255208 2 71 C2 75.29 2 79.58 2 84 C-5.26 84 -12.52 84 -20 84 C-20.33 80.04 -20.66 76.08 -21 72 C-22.959375 71.855625 -24.91875 71.71125 -26.9375 71.5625 C-32.875 71.125 -32.875 71.125 -34 70 C-34.08874135 66.89748799 -34.11518455 63.8173188 -34.09765625 60.71484375 C-34.09553383 59.31861534 -34.09553383 59.31861534 -34.09336853 57.8941803 C-34.08775172 54.90858809 -34.0751964 51.92306971 -34.0625 48.9375 C-34.05748716 46.91862087 -34.05292388 44.89974057 -34.04882812 42.88085938 C-34.03777683 37.92054428 -34.02050095 32.96028468 -34 28 C-29.05339631 27.10961134 -26.12638109 27.14560315 -21 28 C-20.67 23.38 -20.34 18.76 -20 14 C-18.02 13.67 -16.04 13.34 -14 13 C-13.67 11.02 -13.34 9.04 -13 7 C-8.71 7 -4.42 7 0 7 C0 4.69 0 2.38 0 0 Z M-155 419 C-155 427.58 -155 436.16 -155 445 C-153.35 445 -151.7 445 -150 445 C-150 436.42 -150 427.84 -150 419 C-151.65 419 -153.3 419 -155 419 Z " fill="#090808" transform="translate(450,115)"/>
<path d="M0 0 C4.29 0 8.58 0 13 0 C13.495 6.435 13.495 6.435 14 13 C61.025 13.495 61.025 13.495 109 14 C109 9.71 109 5.42 109 1 C109.33 0.67 109.66 0.34 110 0 C114.29 0 118.58 0 123 0 C123 11.22 123 22.44 123 34 C124.98 34 126.96 34 129 34 C129 38.29 129 42.58 129 47 C135.93 47.495 135.93 47.495 143 48 C143 54.6 143 61.2 143 68 C147.29 68 151.58 68 156 68 C156 88.13 156 108.26 156 129 C151.71 129 147.42 129 143 129 C143 135.6 143 142.2 143 149 C138.71 149.33 134.42 149.66 130 150 C129.67 151.98 129.34 153.96 129 156 C127.02 156.33 125.04 156.66 123 157 C122.67 161.29 122.34 165.58 122 170 C113.09 170 104.18 170 95 170 C95 172.31 95 174.62 95 177 C86.28155997 177.02312611 77.56313044 177.04091646 68.84466648 177.05181217 C64.79674258 177.05704041 60.74883959 177.06413699 56.70092773 177.07543945 C52.79764029 177.08627043 48.89437301 177.09227728 44.9910717 177.09487724 C43.49866353 177.09673111 42.00625652 177.100351 40.51385689 177.10573006 C38.43051861 177.11294331 36.34726469 177.11399083 34.26391602 177.11352539 C33.07588882 177.115746 31.88786163 177.11796661 30.66383362 177.12025452 C28 177 28 177 27 176 C27 174.02 27 172.04 27 170 C18.09 170 9.18 170 0 170 C0 165.38 0 160.76 0 156 C-4.62 156 -9.24 156 -14 156 C-14 153.69 -14 151.38 -14 149 C-15.98 149 -17.96 149 -20 149 C-20.495 139.595 -20.495 139.595 -21 130 C-25.29 129.67 -29.58 129.34 -34 129 C-34.33 108.87 -34.66 88.74 -35 68 C-30.38 67.67 -25.76 67.34 -21 67 C-20.67 56.11 -20.34 45.22 -20 34 C-18.02 34 -16.04 34 -14 34 C-14 31.69 -14 29.38 -14 27 C-7.565 26.505 -7.565 26.505 -1 26 C-0.67 17.42 -0.34 8.84 0 0 Z " fill="#0E0D0C" transform="translate(171,219)"/>
<path d="M0 0 C11.88 0 23.76 0 36 0 C36 2.31 36 4.62 36 7 C40.62 7 45.24 7 50 7 C50 9.31 50 11.62 50 14 C54.62 14 59.24 14 64 14 C64 18.62 64 23.24 64 28 C66.79947917 27.70703125 69.59895833 27.4140625 72.3984375 27.12109375 C75 27 75 27 77 28 C77 32.29 77 36.58 77 41 C79.31 41 81.62 41 84 41 C84 45.62 84 50.24 84 55 C88.62 55 93.24 55 98 55 C98 63.91 98 72.82 98 82 C102.29 82 106.58 82 111 82 C112 83 112 83 112.11352539 84.94946289 C112.10567017 86.1984436 112.10567017 86.1984436 112.09765625 87.47265625 C112.09282227 88.82133789 112.09282227 88.82133789 112.08789062 90.19726562 C112.07532227 91.61555664 112.07532227 91.61555664 112.0625 93.0625 C112.05798828 94.01189453 112.05347656 94.96128906 112.04882812 95.93945312 C112.03700128 98.29299531 112.01906521 100.64650532 112 103 C116.29 103 120.58 103 125 103 C125 111.91 125 120.82 125 130 C127.31 130 129.62 130 132 130 C132 136.93 132 143.86 132 151 C136.62 151 141.24 151 146 151 C146 174.1 146 197.2 146 221 C141.38 221 136.76 221 132 221 C132 229.91 132 238.82 132 248 C129.69 248 127.38 248 125 248 C125 284.3 125 320.6 125 358 C120.71 358 116.42 358 112 358 C112.00523682 359.81234131 112.01047363 361.62468262 112.01586914 363.49194336 C112.03196724 369.4670505 112.04347249 375.44215153 112.05181217 381.41727352 C112.05704002 385.0414596 112.06413587 388.6656223 112.07543945 392.28979492 C112.08627184 395.78459975 112.09227758 399.27938204 112.09487724 402.77420235 C112.09763551 404.76239389 112.10544688 406.75057631 112.11329651 408.73875427 C112.11337204 409.93992386 112.11344757 411.14109344 112.11352539 412.37866211 C112.115746 413.44233505 112.11796661 414.506008 112.12025452 415.60191345 C112 418 112 418 111 419 C106.66469082 419.14393457 102.33842269 419.04212061 98 419 C98 423.29 98 427.58 98 432 C92.72 431.67 87.44 431.34 82 431 C81.97317701 426.68745917 81.95324756 422.37508293 81.9375 418.0625 C81.92912109 416.83080078 81.92074219 415.59910156 81.91210938 414.33007812 C81.90888672 413.16025391 81.90566406 411.99042969 81.90234375 410.78515625 C81.89710693 409.70113525 81.89187012 408.61711426 81.88647461 407.50024414 C82 405 82 405 83 404 C87.29 404 91.58 404 96 404 C96 388.16 96 372.32 96 356 C100.62 356 105.24 356 110 356 C110 320.03 110 284.06 110 247 C119 245.875 119 245.875 123 247 C122.99476318 246.18732666 122.98952637 245.37465332 122.98413086 244.53735352 C122.96343006 240.87907678 122.95036197 237.22081233 122.9375 233.5625 C122.92912109 232.28310547 122.92074219 231.00371094 122.91210938 229.68554688 C122.90888672 228.47060547 122.90566406 227.25566406 122.90234375 226.00390625 C122.89710693 224.87799072 122.89187012 223.7520752 122.88647461 222.59204102 C123 220 123 220 124 219 C125.98 219 127.96 219 130 219 C130 196.89 130 174.78 130 152 C125.71 151.67 121.42 151.34 117 151 C117 144.4 117 137.8 117 131 C114.69 131 112.38 131 110 131 C110 122.09 110 113.18 110 104 C105.38 104 100.76 104 96 104 C95.67 97.4 95.34 90.8 95 84 C90.71 83.67 86.42 83.34 82 83 C82 74.09 82 65.18 82 56 C80.02 56 78.04 56 76 56 C75.67 51.71 75.34 47.42 75 43 C70.71 42.67 66.42 42.34 62 42 C62 37.71 62 33.42 62 29 C58.8134375 29.0309375 58.8134375 29.0309375 55.5625 29.0625 C53.37500389 29.08373783 51.18639453 29.07258946 49 29 C48 28 48 28 47.90234375 25.05859375 C47.93489583 21.70572917 47.96744792 18.35286458 48 15 C43.71 15 39.42 15 35 15 C34 10 34 10 35 8 C34.01080566 8.00523682 33.02161133 8.01047363 32.00244141 8.01586914 C28.33855084 8.03394523 24.67466423 8.04544158 21.01074219 8.05493164 C19.42382139 8.05996588 17.83690523 8.06679369 16.25 8.07543945 C13.97134251 8.08754482 11.69274624 8.09323733 9.4140625 8.09765625 C8.34679428 8.10539818 8.34679428 8.10539818 7.25796509 8.11329651 C2.22774341 8.11387171 2.22774341 8.11387171 0 7 C0 4.69 0 2.38 0 0 Z " fill="#010101" transform="translate(450,115)"/>
<path d="M0 0 C9.24 0 18.48 0 28 0 C28 4.95 28 9.9 28 15 C23.71 15 19.42 15 15 15 C15 21.27 15 27.54 15 34 C19.29 34 23.58 34 28 34 C28 36.64 28 39.28 28 42 C23.38 42 18.76 42 14 42 C14 39.69 14 37.38 14 35 C11.69 35 9.38 35 7 35 C7 37.31 7 39.62 7 42 C0.4 42 -6.2 42 -13 42 C-13 39.69 -13 37.38 -13 35 C-6.565 34.505 -6.565 34.505 0 34 C0 22.78 0 11.56 0 0 Z " fill="#010101" transform="translate(218,334)"/>
<path d="M0 0 C4.62 0 9.24 0 14 0 C14 2.31 14 4.62 14 7 C14.969375 6.979375 15.93875 6.95875 16.9375 6.9375 C20 7 20 7 21 8 C21.07258946 10.18639453 21.08373783 12.37500389 21.0625 14.5625 C21.05347656 15.76003906 21.04445313 16.95757812 21.03515625 18.19140625 C21.02355469 19.11824219 21.01195312 20.04507812 21 21 C18.69 21 16.38 21 14 21 C14 25.62 14 30.24 14 35 C2.45 35 -9.1 35 -21 35 C-21 32.69 -21 30.38 -21 28 C-25.29 28 -29.58 28 -34 28 C-34 25.69 -34 23.38 -34 21 C-29.71 21 -25.42 21 -21 21 C-21.020625 18.875625 -21.04125 16.75125 -21.0625 14.5625 C-21.08373783 12.37500389 -21.07258946 10.18639453 -21 8 C-20.67 7.67 -20.34 7.34 -20 7 C-18.02 7 -16.04 7 -14 7 C-14 13.93 -14 20.86 -14 28 C-9.38 28 -4.76 28 0 28 C0 18.76 0 9.52 0 0 Z " fill="#EEE21E" transform="translate(280,293)"/>
<path d="M0 0 C2.31 0 4.62 0 7 0 C7 9.24 7 18.48 7 28 C11.29 28 15.58 28 20 28 C19.98839844 26.56785156 19.97679687 25.13570313 19.96484375 23.66015625 C19.95546745 21.79427213 19.94636708 19.92838661 19.9375 18.0625 C19.92912109 17.11697266 19.92074219 16.17144531 19.91210938 15.19726562 C19.90888672 14.29814453 19.90566406 13.39902344 19.90234375 12.47265625 C19.89710693 11.64000244 19.89187012 10.80734863 19.88647461 9.94946289 C20 8 20 8 21 7 C25.33530918 6.85606543 29.66157731 6.95787939 34 7 C34 11.62 34 16.24 34 21 C36.31 21 38.62 21 41 21 C41 23.31 41 25.62 41 28 C38.69 28 36.38 28 34 28 C34 30.31 34 32.62 34 35 C24.76 35 15.52 35 6 35 C6 32.69 6 30.38 6 28 C4.02 28 2.04 28 0 28 C0 25.69 0 23.38 0 21 C-4.62 21 -9.24 21 -14 21 C-14 16.38 -14 11.76 -14 7 C-9.38 7 -4.76 7 0 7 C0 4.69 0 2.38 0 0 Z " fill="#E7DC1D" transform="translate(164,293)"/>
<path d="M0 0 C1.08152344 0.01417969 2.16304688 0.02835937 3.27734375 0.04296875 C4.90349609 0.05263672 4.90349609 0.05263672 6.5625 0.0625 C9.21484375 0.23046875 9.21484375 0.23046875 10.21484375 1.23046875 C10.25577312 3.56344308 10.25726098 5.897521 10.21484375 8.23046875 C12.52484375 8.23046875 14.83484375 8.23046875 17.21484375 8.23046875 C17.21484375 12.52046875 17.21484375 16.81046875 17.21484375 21.23046875 C14.90484375 21.23046875 12.59484375 21.23046875 10.21484375 21.23046875 C10.21484375 18.92046875 10.21484375 16.61046875 10.21484375 14.23046875 C5.59484375 14.23046875 0.97484375 14.23046875 -3.78515625 14.23046875 C-3.78515625 23.47046875 -3.78515625 32.71046875 -3.78515625 42.23046875 C-8.40515625 42.23046875 -13.02515625 42.23046875 -17.78515625 42.23046875 C-17.78515625 35.30046875 -17.78515625 28.37046875 -17.78515625 21.23046875 C-20.09515625 21.23046875 -22.40515625 21.23046875 -24.78515625 21.23046875 C-24.78515625 16.94046875 -24.78515625 12.65046875 -24.78515625 8.23046875 C-18.18515625 8.23046875 -11.58515625 8.23046875 -4.78515625 8.23046875 C-4.78515625 6.25046875 -4.78515625 4.27046875 -4.78515625 2.23046875 C-2.78515625 0.23046875 -2.78515625 0.23046875 0 0 Z " fill="#040403" transform="translate(283.78515625,278.76953125)"/>
<path d="M0 0 C3 0.125 3 0.125 4 1.125 C4 3.435 4 5.745 4 8.125 C12.91 8.125 21.82 8.125 31 8.125 C31 12.415 31 16.705 31 21.125 C24.565 21.62 24.565 21.62 18 22.125 C17.67 28.725 17.34 35.325 17 42.125 C12.71 42.125 8.42 42.125 4 42.125 C3.67 30.905 3.34 19.685 3 8.125 C0.69 8.125 -1.62 8.125 -4 8.125 C-4.04241723 5.79205225 -4.04092937 3.45797433 -4 1.125 C-3 0.125 -3 0.125 0 0 Z " fill="#010101" transform="translate(167,278.875)"/>
<path d="M0 0 C1.98 0 3.96 0 6 0 C6 8.91 6 17.82 6 27 C4.02 27 2.04 27 0 27 C0 24.69 0 22.38 0 20 C-4.62 20 -9.24 20 -14 20 C-14 15.38 -14 10.76 -14 6 C-9.38 6 -4.76 6 0 6 C0 4.02 0 2.04 0 0 Z " fill="#F1E51D" transform="translate(164,294)"/>
<path d="M0 0 C4.95 0 9.9 0 15 0 C15 2.31 15 4.62 15 7 C14.67 7.33 14.34 7.66 14 8 C12.02 8 10.04 8 8 8 C8 16.91 8 25.82 8 35 C5.36 35 2.72 35 0 35 C0 23.45 0 11.9 0 0 Z " fill="#A4A5A8" transform="translate(533,547)"/>
<path d="M0 0 C2.14576637 -0.02685938 4.29162645 -0.04633088 6.4375 -0.0625 C7.63246094 -0.07410156 8.82742188 -0.08570312 10.05859375 -0.09765625 C13 0 13 0 14 1 C14.07271741 3.35313555 14.08370868 5.70833668 14.0625 8.0625 C14.05347656 9.35285156 14.04445313 10.64320313 14.03515625 11.97265625 C14.02355469 12.97167969 14.01195312 13.97070312 14 15 C10.68751813 15.02888146 7.37506833 15.04675799 4.0625 15.0625 C3.11697266 15.07087891 2.17144531 15.07925781 1.19726562 15.08789062 C-0.15141602 15.09272461 -0.15141602 15.09272461 -1.52734375 15.09765625 C-2.35999756 15.10289307 -3.19265137 15.10812988 -4.05053711 15.11352539 C-6 15 -6 15 -7 14 C-7.04092937 11.66702567 -7.04241723 9.33294775 -7 7 C-5.02 6.67 -3.04 6.34 -1 6 C-0.67 4.02 -0.34 2.04 0 0 Z " fill="#030302" transform="translate(437,122)"/>
<path d="M0 0 C11.88 0 23.76 0 36 0 C35.67 2.31 35.34 4.62 35 7 C23.45 7 11.9 7 0 7 C0 4.69 0 2.38 0 0 Z " fill="#000000" transform="translate(259,328)"/>
<path d="M0 0 C2.64 0 5.28 0 8 0 C8 9.24 8 18.48 8 28 C5.36 28 2.72 28 0 28 C0 18.76 0 9.52 0 0 Z " fill="#C8C9CA" transform="translate(362,533)"/>
<path d="M0 0 C2.31 0 4.62 0 7 0 C7 9.24 7 18.48 7 28 C4.69 28 2.38 28 0 28 C-0.76327482 24.60543565 -1.12814848 21.46530859 -1.1328125 17.98828125 C-1.13410156 17.06595703 -1.13539063 16.14363281 -1.13671875 15.19335938 C-1.13285156 14.24267578 -1.12898438 13.29199219 -1.125 12.3125 C-1.12886719 11.35021484 -1.13273437 10.38792969 -1.13671875 9.39648438 C-1.13542969 8.47802734 -1.13414062 7.55957031 -1.1328125 6.61328125 C-1.13168457 5.77579346 -1.13055664 4.93830566 -1.12939453 4.07543945 C-1 2 -1 2 0 0 Z " fill="#99999D" transform="translate(396,567)"/>
<path d="M0 0 C9.24 0 18.48 0 28 0 C28 2.31 28 4.62 28 7 C18.76 7 9.52 7 0 7 C0 4.69 0 2.38 0 0 Z " fill="#000000" transform="translate(170,328)"/>
<path d="M0 0 C1.98 0 3.96 0 6 0 C6 8.91 6 17.82 6 27 C3.69 27 1.38 27 -1 27 C-1.02886537 22.68751391 -1.04675255 18.37505238 -1.0625 14.0625 C-1.07087891 12.83080078 -1.07925781 11.59910156 -1.08789062 10.33007812 C-1.09111328 9.16025391 -1.09433594 7.99042969 -1.09765625 6.78515625 C-1.10289307 5.70113525 -1.10812988 4.61711426 -1.11352539 3.50024414 C-1 1 -1 1 0 0 Z " fill="#CDCECF" transform="translate(417,533)"/>
<path d="M0 0 C9.27734375 -0.09765625 9.27734375 -0.09765625 12 0 C13 1 13 1 13.1328125 3.6875 C13.13023437 4.780625 13.12765625 5.87375 13.125 7 C13.12757813 8.093125 13.13015625 9.18625 13.1328125 10.3125 C13 13 13 13 12 14 C7.99779347 14.14355117 4.00558317 14.04216403 0 14 C0 9.38 0 4.76 0 0 Z " fill="#020202" transform="translate(199,300)"/>
<path d="M0 0 C1.50046875 0.00386719 1.50046875 0.00386719 3.03125 0.0078125 C4.0315625 0.00523437 5.031875 0.00265625 6.0625 0 C8.53125 0.1328125 8.53125 0.1328125 9.53125 1.1328125 C9.62998816 3.13080822 9.66096799 5.13238408 9.65625 7.1328125 C9.65882813 8.2259375 9.66140625 9.3190625 9.6640625 10.4453125 C9.53125 13.1328125 9.53125 13.1328125 8.53125 14.1328125 C6.51160801 14.20525303 4.48957876 14.21658438 2.46875 14.1953125 C1.36402344 14.18628906 0.25929688 14.17726562 -0.87890625 14.16796875 C-2.16087891 14.15056641 -2.16087891 14.15056641 -3.46875 14.1328125 C-3.49560938 11.98704613 -3.51508088 9.84118605 -3.53125 7.6953125 C-3.54285156 6.50035156 -3.55445313 5.30539063 -3.56640625 4.07421875 C-3.43727936 0.18491693 -3.43727936 0.18491693 0 0 Z " fill="#0E0D0C" transform="translate(304.46875,197.8671875)"/>
<path d="M0 0 C0.33 0 0.66 0 1 0 C1 26.4 1 52.8 1 80 C7.27 80 13.54 80 20 80 C20 78.02 20 76.04 20 74 C22.31 74 24.62 74 27 74 C27 76.31 27 78.62 27 81 C18.09 81 9.18 81 0 81 C0 54.27 0 27.54 0 0 Z " fill="#0D0D0C" transform="translate(328,192)"/>
<path d="M0 0 C4.95 0 9.9 0 15 0 C15 2.31 15 4.62 15 7 C12.36 7 9.72 7 7 7 C7 8.98 7 10.96 7 13 C4.69 13 2.38 13 0 13 C0 8.71 0 4.42 0 0 Z " fill="#CECFD0" transform="translate(533,547)"/>
<path d="M0 0 C2.31 0 4.62 0 7 0 C7 6.93 7 13.86 7 21 C4.69 21 2.38 21 0 21 C0 14.07 0 7.14 0 0 Z " fill="#A5A5A9" transform="translate(218,465)"/>
<path d="M0 0 C6.6 0 13.2 0 20 0 C20 2.31 20 4.62 20 7 C13.4 7 6.8 7 0 7 C0 4.69 0 2.38 0 0 Z " fill="#444430" transform="translate(431,191)"/>
<path d="M0 0 C2.14576637 -0.02685938 4.29162645 -0.04633088 6.4375 -0.0625 C7.63246094 -0.07410156 8.82742188 -0.08570313 10.05859375 -0.09765625 C13 0 13 0 14 1 C14 3.31 14 5.62 14 8 C9.38 8 4.76 8 0 8 C0 5.36 0 2.72 0 0 Z " fill="#9D9D9C" transform="translate(280,204)"/>
<path d="M0 0 C4.62 0 9.24 0 14 0 C14.33 1.65 14.66 3.3 15 5 C14.01 6.485 14.01 6.485 13 8 C8.71 7.67 4.42 7.34 0 7 C0 4.69 0 2.38 0 0 Z " fill="#C8C9CA" transform="translate(171,204)"/>
<path d="M0 0 C6.93 0.495 6.93 0.495 14 1 C14 2.98 14 4.96 14 7 C9.38 7 4.76 7 0 7 C0 4.69 0 2.38 0 0 Z " fill="#958D0F" transform="translate(150,307)"/>
<path d="M0 0 C4.29 0 8.58 0 13 0 C13.33 1.65 13.66 3.3 14 5 C13 6 13 6 10.05859375 6.09765625 C8.26615234 6.08025391 8.26615234 6.08025391 6.4375 6.0625 C4.64119141 6.04896484 4.64119141 6.04896484 2.80859375 6.03515625 C1.88175781 6.02355469 0.95492188 6.01195312 0 6 C0 4.02 0 2.04 0 0 Z " fill="#0E0D0C" transform="translate(280,287)"/>
<path d="M0 0 C4.29 0 8.58 0 13 0 C13 2.31 13 4.62 13 7 C8.71 6.67 4.42 6.34 0 6 C-1 2 -1 2 0 0 Z " fill="#000000" transform="translate(150,315)"/>
<path d="M0 0 C4.29 0 8.58 0 13 0 C13 1.98 13 3.96 13 6 C8.71 6 4.42 6 0 6 C0 4.02 0 2.04 0 0 Z " fill="#040404" transform="translate(246,307)"/>
<path d="M0 0 C4.29 0 8.58 0 13 0 C13 1.98 13 3.96 13 6 C8.71 6 4.42 6 0 6 C0 4.02 0 2.04 0 0 Z " fill="#0E0D0C" transform="translate(157,212)"/>
<path d="M0 0 C1.65 0 3.3 0 5 0 C5 4.62 5 9.24 5 14 C3.35 14 1.7 14 0 14 C0 9.38 0 4.76 0 0 Z " fill="#0E0D0C" transform="translate(151,198)"/>
<path d="M0 0 C0.33 0 0.66 0 1 0 C1 4.29 1 8.58 1 13 C-1.31 13 -3.62 13 -6 13 C-6 11.02 -6 9.04 -6 7 C-4.02 7 -2.04 7 0 7 C0 4.69 0 2.38 0 0 Z " fill="#8B8414" transform="translate(300,301)"/>
<path d="M0 0 C2.31 0 4.62 0 7 0 C7 2.31 7 4.62 7 7 C4.69 7 2.38 7 0 7 C0 4.69 0 2.38 0 0 Z " fill="#A5A5A9" transform="translate(348,266)"/>
<path d="M0 0 C2.31 0 4.62 0 7 0 C7 2.31 7 4.62 7 7 C4.69 7 2.38 7 0 7 C0 4.69 0 2.38 0 0 Z " fill="#A8A8AC" transform="translate(430,129)"/>
<path d="M0 0 C1.99954746 -0.04254356 4.00041636 -0.04080783 6 0 C7 1 7 1 7.125 3.5 C7 6 7 6 6 7 C4.00041636 7.04080783 1.99954746 7.04254356 0 7 C0 4.69 0 2.38 0 0 Z " fill="#444430" transform="translate(205,314)"/>
<path d="M0 0 C2.31 0 4.62 0 7 0 C7 1.98 7 3.96 7 6 C4.69 6.33 2.38 6.66 0 7 C0 4.69 0 2.38 0 0 Z " fill="#A5A5A9" transform="translate(533,547)"/>
<path d="M0 0 C2.31 0 4.62 0 7 0 C7 1.98 7 3.96 7 6 C4.69 6 2.38 6 0 6 C0 4.02 0 2.04 0 0 Z " fill="#010101" transform="translate(294,315)"/>
<path d="M0 0 C1.98 0 3.96 0 6 0 C6 1.98 6 3.96 6 6 C4.02 6 2.04 6 0 6 C0 4.02 0 2.04 0 0 Z " fill="#0E0D0C" transform="translate(294,212)"/>
<path d="M0 0 C2.64 0 5.28 0 8 0 C8 1.98 8 3.96 8 6 C6.02 6 4.04 6 2 6 C1.34 4.02 0.68 2.04 0 0 Z " fill="#040404" transform="translate(251,322)"/>
</svg>
